<svg width="11" height="18" viewBox="0 0 11 18" fill="none" xmlns="http://www.w3.org/2000/svg">
<path d="M6.9576 18H3.5371C3.34276 18 3.18404 17.9443 3.06095 17.833C2.93787 17.7217 2.87633 17.5781 2.87633 17.4023V10.3535H0.660777C0.466431 10.3535 0.307715 10.2979 0.184629 10.1865C0.061543 10.0752 0 9.93164 0 9.75586V6.75C0 6.57422 0.061543 6.43066 0.184629 6.31934C0.307715 6.20801 0.466431 6.15234 0.660777 6.15234H2.87633V4.55273C2.87633 3.86133 2.99293 3.23438 3.22615 2.67188C3.45936 2.12109 3.78975 1.64648 4.21731 1.24805C4.64488 0.849609 5.16313 0.539062 5.77208 0.316406C6.36808 0.105469 7.04181 0 7.79329 0C8.42815 0 8.98852 0.0175781 9.47438 0.0527344C9.96025 0.0878906 10.2874 0.105469 10.4558 0.105469C10.6113 0.128906 10.7409 0.196289 10.8445 0.307617C10.9482 0.418945 11 0.550781 11 0.703125V3.35742C11 3.5332 10.9385 3.67676 10.8154 3.78809C10.6923 3.89941 10.5336 3.95508 10.3392 3.95508H8.57067C8.13015 3.95508 7.85483 4.01367 7.7447 4.13086C7.63457 4.24805 7.57951 4.4707 7.57951 4.79883V6.09961H10.1643C10.255 6.09961 10.3489 6.11426 10.4461 6.14355C10.5433 6.17285 10.6178 6.22266 10.6696 6.29297C10.7214 6.375 10.7635 6.4541 10.7959 6.53027C10.8283 6.60645 10.8445 6.67969 10.8445 6.75L10.3975 9.75586C10.3716 9.89648 10.2939 10.0137 10.1643 10.1074C10.0347 10.2012 9.89223 10.248 9.73675 10.248H7.5212V17.2969C7.57303 17.5195 7.54064 17.6924 7.42403 17.8154C7.30742 17.9385 7.15194 18 6.9576 18ZM4.19788 16.8047H6.29682V9.75586C6.29682 9.58008 6.35836 9.43652 6.48145 9.3252C6.60453 9.21387 6.76325 9.1582 6.9576 9.1582H9.23145L9.50353 7.34766H6.9576C6.76325 7.34766 6.60453 7.29199 6.48145 7.18066C6.35836 7.06934 6.29682 6.92578 6.29682 6.75V4.85156C6.29682 4.60547 6.39399 4.20117 6.58834 3.63867C6.78269 3.07617 7.4629 2.79492 8.62897 2.79492H9.73675V1.24805C9.51649 1.22461 9.2444 1.20996 8.9205 1.2041C8.59658 1.19824 8.24028 1.19531 7.85159 1.19531C6.71143 1.19531 5.82715 1.48535 5.19876 2.06543C4.57038 2.64551 4.25618 3.47461 4.25618 4.55273V6.75C4.25618 6.92578 4.19464 7.06934 4.07155 7.18066C3.94847 7.29199 3.78975 7.34766 3.59541 7.34766H1.37986V9.1582H3.59541C3.78975 9.1582 3.94847 9.21387 4.07155 9.3252C4.19464 9.43652 4.25618 9.58008 4.25618 9.75586V16.8047H4.19788Z" fill="white"/>
</svg>
