<svg width="17" height="18" viewBox="0 0 17 18" fill="none" xmlns="http://www.w3.org/2000/svg">
<path d="M15.5889 16.5059C15.8102 16.2715 15.9984 16.0342 16.1533 15.7939C16.3083 15.5537 16.4466 15.2754 16.5684 14.959C16.6901 14.6543 16.7786 14.3291 16.834 13.9834C16.8893 13.6377 16.9281 13.248 16.9502 12.8145C16.9723 12.3223 16.9862 11.8711 16.9917 11.4609C16.9972 11.0508 17 10.2305 17 9C17 7.73438 16.9972 6.90527 16.9917 6.5127C16.9862 6.12012 16.9723 5.67773 16.9502 5.18555C16.9281 4.75195 16.8893 4.3623 16.834 4.0166C16.7786 3.6709 16.6901 3.3457 16.5684 3.04102C16.4466 2.72461 16.3083 2.44629 16.1533 2.20605C15.9984 1.96582 15.8102 1.72852 15.5889 1.49414C15.3675 1.25977 15.1434 1.06055 14.9165 0.896484C14.6896 0.732422 14.4268 0.585938 14.1279 0.457031C13.8402 0.328125 13.533 0.234375 13.2065 0.175781C12.88 0.117188 12.512 0.0761719 12.1025 0.0527344C11.6377 0.0292969 11.2116 0.0146484 10.8242 0.00878906C10.4368 0.00292969 9.66211 0 8.5 0C7.30469 0 6.52165 0.00292969 6.15088 0.00878906C5.78011 0.0146484 5.3623 0.0292969 4.89746 0.0527344C4.48796 0.0761719 4.11995 0.117188 3.79346 0.175781C3.46696 0.234375 3.15983 0.328125 2.87207 0.457031C2.57324 0.585938 2.31038 0.732422 2.0835 0.896484C1.85661 1.06055 1.63249 1.25977 1.41113 1.49414C1.18978 1.72852 1.00163 1.96582 0.84668 2.20605C0.691732 2.44629 0.553385 2.72461 0.431641 3.04102C0.309896 3.3457 0.221354 3.6709 0.166016 4.0166C0.110677 4.3623 0.0719401 4.75195 0.0498047 5.18555C0.0276693 5.67773 0.0138346 6.12891 0.00830078 6.53906C0.00276693 6.94922 0 7.76953 0 9C0 10.2656 0.00276693 11.0947 0.00830078 11.4873C0.0138346 11.8799 0.0276693 12.3223 0.0498047 12.8145C0.0719401 13.248 0.110677 13.6377 0.166016 13.9834C0.221354 14.3291 0.309896 14.6543 0.431641 14.959C0.553385 15.2754 0.691732 15.5537 0.84668 15.7939C1.00163 16.0342 1.18978 16.2715 1.41113 16.5059C1.63249 16.7402 1.85661 16.9395 2.0835 17.1035C2.31038 17.2676 2.57324 17.4141 2.87207 17.543C3.15983 17.6719 3.46696 17.7656 3.79346 17.8242C4.11995 17.8828 4.48796 17.9238 4.89746 17.9473C5.3623 17.9707 5.78841 17.9854 6.17578 17.9912C6.56315 17.9971 7.33789 18 8.5 18C9.69531 18 10.4784 17.9971 10.8491 17.9912C11.2199 17.9854 11.6377 17.9707 12.1025 17.9473C12.512 17.9238 12.88 17.8828 13.2065 17.8242C13.533 17.7656 13.8402 17.6719 14.1279 17.543C14.4046 17.4141 14.6619 17.2676 14.8999 17.1035C15.1379 16.9395 15.3675 16.7402 15.5889 16.5059ZM12.0029 16.7168C11.5381 16.7402 11.1203 16.7549 10.7495 16.7607C10.3787 16.7666 9.6123 16.7695 8.4502 16.7695C7.28809 16.7695 6.52165 16.7666 6.15088 16.7607C5.78011 16.7549 5.3623 16.7402 4.89746 16.7168C4.44369 16.6934 4.08398 16.6465 3.81836 16.5762C3.55273 16.5059 3.34798 16.4297 3.2041 16.3477C2.98275 16.2773 2.79183 16.1865 2.63135 16.0752C2.47087 15.9639 2.30762 15.8145 2.1416 15.627C1.96452 15.4512 1.8234 15.2783 1.71826 15.1084C1.61312 14.9385 1.52734 14.7363 1.46094 14.502C1.38346 14.3262 1.31152 14.0977 1.24512 13.8164C1.17871 13.5352 1.13444 13.166 1.1123 12.709V12.6562C1.09017 12.1641 1.07633 11.7246 1.0708 11.3379C1.06527 10.9512 1.0625 10.1543 1.0625 8.94727C1.0625 7.7168 1.06527 6.90527 1.0708 6.5127C1.07633 6.12012 1.09017 5.67773 1.1123 5.18555C1.13444 4.70508 1.17871 4.32422 1.24512 4.04297C1.31152 3.76172 1.38346 3.54492 1.46094 3.39258C1.52734 3.19336 1.61312 3 1.71826 2.8125C1.8234 2.625 1.96452 2.44336 2.1416 2.26758C2.30762 2.08008 2.47087 1.93066 2.63135 1.81934C2.79183 1.70801 2.98275 1.61719 3.2041 1.54688C3.37012 1.46484 3.58594 1.38867 3.85156 1.31836C4.11719 1.24805 4.46582 1.20117 4.89746 1.17773H4.94727C5.41211 1.1543 5.82715 1.13965 6.19238 1.13379C6.55762 1.12793 7.31022 1.125 8.4502 1.125C9.6123 1.125 10.3787 1.12793 10.7495 1.13379C11.1203 1.13965 11.5381 1.1543 12.0029 1.17773C12.4567 1.20117 12.8164 1.24805 13.082 1.31836C13.3477 1.38867 13.5524 1.46484 13.6963 1.54688C13.8955 1.61719 14.0809 1.70801 14.2524 1.81934C14.424 1.93066 14.5928 2.08008 14.7588 2.26758C14.9359 2.44336 15.077 2.61621 15.1821 2.78613C15.2873 2.95605 15.373 3.1582 15.4395 3.39258C15.5169 3.56836 15.5889 3.79688 15.6553 4.07812C15.7217 4.35938 15.766 4.72852 15.7881 5.18555V5.23828C15.8102 5.73047 15.8241 6.16992 15.8296 6.55664C15.8351 6.94336 15.8379 7.74023 15.8379 8.94727C15.8379 10.1777 15.8351 10.9863 15.8296 11.373C15.8241 11.7598 15.8102 12.1875 15.7881 12.6562V12.709C15.766 13.1895 15.7217 13.5703 15.6553 13.8516C15.5889 14.1328 15.5169 14.3496 15.4395 14.502C15.373 14.7363 15.2817 14.9385 15.1655 15.1084C15.0493 15.2783 14.9137 15.4512 14.7588 15.627C14.5928 15.8145 14.4295 15.9639 14.269 16.0752C14.1086 16.1865 13.9176 16.2773 13.6963 16.3477C13.5303 16.4297 13.3145 16.5059 13.0488 16.5762C12.7832 16.6465 12.4346 16.6934 12.0029 16.7168ZM8.4502 4.42969C7.85254 4.42969 7.29362 4.54688 6.77344 4.78125C6.25326 5.02734 5.80225 5.35547 5.42041 5.76562C5.03857 6.17578 4.73698 6.65625 4.51562 7.20703C4.29427 7.74609 4.18359 8.32617 4.18359 8.94727C4.18359 9.56836 4.29427 10.1543 4.51562 10.7051C4.74805 11.2441 5.05794 11.7217 5.44531 12.1377C5.83268 12.5537 6.28646 12.8789 6.80664 13.1133C7.31576 13.3594 7.86361 13.4824 8.4502 13.4824C9.03678 13.4824 9.59017 13.3594 10.1104 13.1133C10.6195 12.8789 11.0705 12.5537 11.4634 12.1377C11.8563 11.7217 12.1634 11.2441 12.3848 10.7051C12.6172 10.1543 12.7334 9.56836 12.7334 8.94727C12.7334 8.32617 12.6172 7.74609 12.3848 7.20703C12.1634 6.65625 11.8618 6.17578 11.48 5.76562C11.0981 5.35547 10.6471 5.02734 10.127 4.78125C9.60677 4.54688 9.04785 4.42969 8.4502 4.42969ZM8.4502 12.2344C7.59798 12.2344 6.86751 11.9121 6.25879 11.2676C5.65006 10.623 5.3457 9.84961 5.3457 8.94727C5.3457 8.04492 5.65006 7.27148 6.25879 6.62695C6.86751 5.98242 7.59798 5.66016 8.4502 5.66016C9.30241 5.66016 10.0329 5.98242 10.6416 6.62695C11.2503 7.27148 11.5547 8.04492 11.5547 8.94727C11.5547 9.84961 11.2503 10.623 10.6416 11.2676C10.0329 11.9121 9.30241 12.2344 8.4502 12.2344ZM13.1152 4.88672C13.3477 4.88672 13.5441 4.80176 13.7046 4.63184C13.8651 4.46191 13.9453 4.25391 13.9453 4.00781C13.9453 3.77344 13.8651 3.56836 13.7046 3.39258C13.5441 3.2168 13.3477 3.12891 13.1152 3.12891C12.8828 3.12891 12.6864 3.2168 12.5259 3.39258C12.3654 3.56836 12.2852 3.77344 12.2852 4.00781C12.2852 4.25391 12.3654 4.46191 12.5259 4.63184C12.6864 4.80176 12.8828 4.88672 13.1152 4.88672Z" fill="white"/>
</svg>
