<svg width="17" height="18" viewBox="0 0 17 18" fill="none" xmlns="http://www.w3.org/2000/svg">
<path d="M15.8711 14.3965V3.60352C15.8711 2.94727 15.647 2.38184 15.1987 1.90723C14.7505 1.43262 14.2165 1.19531 13.5967 1.19531H3.40332C2.78353 1.19531 2.24951 1.43262 1.80127 1.90723C1.35303 2.38184 1.12891 2.94727 1.12891 3.60352V14.3965C1.12891 15.0527 1.35303 15.6182 1.80127 16.0928C2.24951 16.5674 2.78353 16.8047 3.40332 16.8047H13.5967C14.2165 16.8047 14.7505 16.5674 15.1987 16.0928C15.647 15.6182 15.8711 15.0527 15.8711 14.3965ZM13.5967 0C14.0726 0 14.5153 0.09375 14.9248 0.28125C15.3454 0.46875 15.7078 0.723633 16.0122 1.0459C16.3166 1.36816 16.5573 1.75195 16.7344 2.19727C16.9115 2.63086 17 3.09961 17 3.60352V14.3965C17 14.9004 16.9115 15.3691 16.7344 15.8027C16.5573 16.248 16.3166 16.6318 16.0122 16.9541C15.7078 17.2764 15.3454 17.5312 14.9248 17.7188C14.5153 17.9063 14.0726 18 13.5967 18H3.40332C2.92741 18 2.4847 17.9063 2.0752 17.7188C1.65462 17.5312 1.29215 17.2764 0.987793 16.9541C0.683431 16.6318 0.442708 16.248 0.265625 15.8027C0.0885417 15.3691 0 14.9004 0 14.3965V3.60352C0 3.09961 0.0885417 2.63086 0.265625 2.19727C0.442708 1.75195 0.683431 1.36816 0.987793 1.0459C1.29215 0.723633 1.65462 0.46875 2.0752 0.28125C2.4847 0.09375 2.92741 0 3.40332 0H13.5967ZM4.34961 13.5H6.09277V7.50586H4.34961V13.5ZM5.19629 4.5C5.05241 4.5 4.92236 4.52637 4.80615 4.5791C4.68994 4.63184 4.58203 4.70508 4.48242 4.79883C4.39388 4.9043 4.32471 5.01855 4.2749 5.1416C4.2251 5.26465 4.2002 5.40234 4.2002 5.55469C4.2002 5.70703 4.2251 5.84473 4.2749 5.96777C4.32471 6.09082 4.39388 6.19922 4.48242 6.29297C4.58203 6.39844 4.68994 6.47461 4.80615 6.52148C4.92236 6.56836 5.05241 6.5918 5.19629 6.5918C5.34017 6.5918 5.47021 6.56836 5.58643 6.52148C5.70264 6.47461 5.81055 6.39844 5.91016 6.29297C5.9987 6.19922 6.06787 6.09082 6.11768 5.96777C6.16748 5.84473 6.19238 5.70703 6.19238 5.55469C6.19238 5.40234 6.16748 5.26465 6.11768 5.1416C6.06787 5.01855 5.9987 4.9043 5.91016 4.79883C5.81055 4.72852 5.70264 4.66113 5.58643 4.59668C5.47021 4.53223 5.34017 4.5 5.19629 4.5ZM12.418 8.15625C12.3516 8.02734 12.263 7.91309 12.1523 7.81348C12.0417 7.71387 11.9255 7.62891 11.8037 7.55859C11.6598 7.47656 11.5021 7.4209 11.3306 7.3916C11.159 7.3623 10.957 7.34766 10.7246 7.34766C10.625 7.34766 10.5226 7.35938 10.4175 7.38281C10.3123 7.40625 10.2266 7.42969 10.1602 7.45312C10.0827 7.47656 10.0024 7.50879 9.91943 7.5498C9.83643 7.59082 9.75618 7.62305 9.67871 7.64648C9.6123 7.69336 9.5459 7.74316 9.47949 7.7959C9.41309 7.84863 9.35221 7.89844 9.29688 7.94531C9.2526 8.00391 9.20833 8.06543 9.16406 8.12988C9.11979 8.19434 9.08659 8.25 9.06445 8.29688V7.50586H7.37109V13.5H9.11426V10.4941C9.11426 10.4004 9.11702 10.3037 9.12256 10.2041C9.12809 10.1045 9.14193 10.0195 9.16406 9.94922C9.1862 9.85547 9.20833 9.76758 9.23047 9.68555C9.2526 9.60352 9.27474 9.52734 9.29688 9.45703C9.35221 9.375 9.40479 9.30762 9.45459 9.25488C9.50439 9.20215 9.5625 9.15234 9.62891 9.10547C9.70638 9.04688 9.79216 9.00586 9.88623 8.98242C9.98031 8.95898 10.0827 8.94727 10.1934 8.94727C10.3151 8.94727 10.4147 8.95898 10.4922 8.98242C10.5697 9.00586 10.6471 9.04688 10.7246 9.10547C10.791 9.15234 10.8408 9.21094 10.874 9.28125C10.9072 9.35156 10.9515 9.42188 11.0068 9.49219C11.029 9.57422 11.0483 9.65918 11.0649 9.74707C11.0815 9.83496 11.0898 9.91992 11.0898 10.002C11.0898 10.0957 11.0898 10.1865 11.0898 10.2744C11.0898 10.3623 11.0898 10.4531 11.0898 10.5469V13.5H12.8496V10.1953C12.8496 9.99609 12.8385 9.7998 12.8164 9.60645C12.7943 9.41309 12.7721 9.24609 12.75 9.10547C12.7279 8.95312 12.6836 8.78613 12.6172 8.60449C12.5508 8.42285 12.4844 8.27344 12.418 8.15625Z" fill="white"/>
</svg>
