<svg width="16" height="18" viewBox="0 0 16 18" fill="none" xmlns="http://www.w3.org/2000/svg">
<path d="M15.804 4.22593C15.7565 4.07269 15.6733 3.9725 15.5545 3.92534C15.4357 3.87819 15.2635 3.84283 15.0378 3.81925C14.8121 3.79568 14.6042 3.75737 14.4141 3.70432C14.2241 3.65128 14.0281 3.58939 13.8261 3.51866C13.3985 3.31827 13.0362 3.0442 12.7392 2.69646C12.4422 2.34872 12.2284 1.95088 12.0977 1.50295C12.074 1.43222 12.0502 1.32908 12.0264 1.19352C12.0027 1.05796 11.9789 0.925344 11.9552 0.795677C11.9314 0.571709 11.8958 0.403732 11.8483 0.291748C11.8007 0.179764 11.7176 0.100197 11.5988 0.0530453C11.5156 0.0176811 11.3939 0 11.2335 0C11.0731 0 10.6366 0 9.92384 0C9.23485 0 8.79532 0 8.60526 0C8.41519 0 8.2964 0.0176811 8.24888 0.0530453C8.20137 0.0766201 8.15385 0.103144 8.10633 0.132612C8.05882 0.162083 8.02318 0.200394 7.99942 0.247543L7.89251 0.388998L7.83905 12.4656L7.7856 12.6601C7.69057 12.9666 7.52426 13.2289 7.28668 13.447C7.04909 13.665 6.78181 13.8271 6.48484 13.9332C6.33041 13.9804 6.15816 14.0039 5.96809 14.0039C5.77803 14.0039 5.61172 13.9804 5.46917 13.9332C5.0534 13.8035 4.72079 13.5737 4.47133 13.2436C4.22187 12.9136 4.09714 12.5363 4.09714 12.112C4.09714 11.8409 4.13871 11.5963 4.22187 11.3782C4.30502 11.1601 4.44757 10.9509 4.64951 10.7505C4.8277 10.5737 5.00886 10.444 5.19298 10.3615C5.37711 10.279 5.61766 10.2259 5.91464 10.2024C6.09282 10.1788 6.22053 10.1493 6.29774 10.1139C6.37495 10.0786 6.4492 10.0079 6.52047 9.90177C6.57987 9.85462 6.61254 9.75147 6.61848 9.59234C6.62441 9.4332 6.62738 8.96464 6.62738 8.18664C6.62738 7.43222 6.62441 6.9725 6.61848 6.80747C6.61254 6.64244 6.57987 6.53635 6.52047 6.48919C6.42544 6.33595 6.33041 6.24754 6.23537 6.22397C6.14034 6.20039 5.96809 6.18861 5.71863 6.18861C5.23159 6.18861 4.73564 6.26817 4.23077 6.42731C3.72591 6.58644 3.25966 6.78978 2.83201 7.03733C2.24993 7.39096 1.73913 7.84774 1.29961 8.40766C0.860078 8.96758 0.539342 9.54813 0.337397 10.1493C0.0166616 11.057 -0.0754015 11.9735 0.0612083 12.8988C0.197818 13.8242 0.545282 14.6876 1.1036 15.4892C1.25803 15.6896 1.47482 15.9371 1.75398 16.2318C2.03314 16.5265 2.29151 16.7446 2.52909 16.8861C3.02802 17.2397 3.57742 17.5138 4.17732 17.7083C4.77721 17.9028 5.39196 18 6.02155 18C6.6749 18 7.3134 17.891 7.93706 17.6729C8.56071 17.4548 9.13982 17.1454 9.67438 16.7446C10.1733 16.3438 10.6069 15.8752 10.9751 15.3389C11.3434 14.8026 11.6166 14.2338 11.7948 13.6326C11.9017 13.279 11.9641 12.9224 11.9819 12.5629C11.9997 12.2033 12.0086 11.2692 12.0086 9.76031C12.0086 9.14735 12.0086 8.60806 12.0086 8.14244C12.0086 7.67682 12.0086 7.34381 12.0086 7.14342L12.2046 7.23183C12.4541 7.33792 12.7154 7.43517 12.9886 7.52358C13.2619 7.61198 13.541 7.68566 13.8261 7.7446C14.0756 7.79175 14.3755 7.83301 14.726 7.86837C15.0764 7.90373 15.317 7.90963 15.4476 7.88605C15.5545 7.86248 15.6525 7.80648 15.7416 7.71807C15.8307 7.62967 15.899 7.53831 15.9465 7.44401C15.9822 7.38507 16 7.15815 16 6.76326C16 6.36837 16 6.05894 16 5.83497C15.9525 5.10413 15.9198 4.67092 15.902 4.53536C15.8842 4.3998 15.8515 4.29666 15.804 4.22593ZM2.88547 11.3694C2.82607 11.5344 2.79637 11.7672 2.79637 12.0678C2.79637 12.3684 2.82607 12.6189 2.88547 12.8193C3.00426 13.3026 3.22996 13.7328 3.56258 14.11C3.89519 14.4872 4.29314 14.7583 4.75643 14.9234C4.95837 15.0059 5.14844 15.0707 5.32662 15.1179C5.50481 15.165 5.71863 15.1886 5.96809 15.1886C6.1938 15.1886 6.39277 15.1739 6.56502 15.1444C6.73727 15.1149 6.92436 15.0589 7.12631 14.9764C7.54208 14.835 7.90439 14.5992 8.21325 14.2692C8.5221 13.9391 8.75375 13.5737 8.90817 13.1729V13.1198C9.01509 12.8723 9.07448 12.5039 9.08636 12.0147C9.09824 11.5255 9.10418 9.94892 9.10418 7.28487V1.14931H9.92384C10.1258 1.14931 10.2921 1.14931 10.4228 1.14931C10.5534 1.14931 10.6544 1.14931 10.7257 1.14931C10.7613 1.2554 10.7999 1.38802 10.8415 1.54715C10.8831 1.70629 10.9157 1.82711 10.9395 1.90963C11.1177 2.46365 11.4117 2.97642 11.8215 3.44794C12.2314 3.91945 12.7154 4.29666 13.2737 4.57957C13.4163 4.65029 13.6093 4.72692 13.8529 4.80943C14.0964 4.89194 14.3072 4.94499 14.4854 4.96857L14.6814 5.02161V6.5776H14.5923C14.129 6.53045 13.6598 6.42436 13.1847 6.25933C12.7095 6.0943 12.2818 5.88212 11.9017 5.62279C11.771 5.55206 11.673 5.50196 11.6077 5.4725C11.5424 5.44303 11.4681 5.42829 11.385 5.42829H11.3493C11.2187 5.42829 11.1117 5.45481 11.0286 5.50786C10.9454 5.5609 10.8801 5.65226 10.8326 5.78193C10.7851 5.85265 10.7554 6.0442 10.7435 6.35658C10.7316 6.66896 10.7257 7.61493 10.7257 9.1945C10.7257 10.5029 10.7257 11.3959 10.7257 11.8733C10.7257 12.3507 10.7138 12.6483 10.69 12.7662C10.5831 13.4263 10.3485 14.0334 9.9862 14.5874C9.62389 15.1415 9.16357 15.6071 8.60526 15.9843C8.42707 16.1139 8.26373 16.2112 8.11524 16.276C7.96675 16.3409 7.79154 16.4145 7.58959 16.4971C7.31637 16.5914 7.07582 16.6562 6.86794 16.6916C6.66005 16.7269 6.39574 16.7446 6.07501 16.7446H5.91464C5.66518 16.7446 5.48105 16.7387 5.36226 16.7269C5.24347 16.7151 5.10686 16.6857 4.95243 16.6385C4.01398 16.4145 3.22105 15.9784 2.57364 15.3301C1.92623 14.6817 1.50155 13.8802 1.29961 12.9253C1.25209 12.725 1.22833 12.4391 1.22833 12.0678C1.22833 11.6965 1.25209 11.4106 1.29961 11.2102C1.359 11.0098 1.42434 10.7976 1.49561 10.5737C1.56689 10.3497 1.63816 10.1611 1.70943 10.0079C1.93514 9.54813 2.22915 9.13851 2.59146 8.77898C2.95377 8.41945 3.35469 8.13949 3.79422 7.9391C4.01992 7.80943 4.29314 7.70039 4.61388 7.61198C4.93461 7.52358 5.18407 7.46758 5.36226 7.44401V9L5.20189 9.05305C4.61982 9.17092 4.11792 9.4332 3.69622 9.83988C3.27451 10.2466 3.00426 10.7564 2.88547 11.3694Z" fill="white"/>
</svg>
