<svg width="22" height="18" viewBox="0 0 22 18" fill="none" xmlns="http://www.w3.org/2000/svg">
<path d="M21.8016 2.22842C21.7174 2.10975 21.6062 2.03261 21.4679 1.99701C21.3296 1.96141 21.2003 1.96141 21.08 1.99701C21.1402 1.87834 21.1973 1.7567 21.2514 1.63209C21.3055 1.50749 21.3506 1.38585 21.3867 1.26718C21.4468 1.12477 21.4498 0.982361 21.3957 0.839952C21.3416 0.697546 21.2544 0.578875 21.1342 0.483936C21.0139 0.400866 20.8816 0.356363 20.7373 0.35043C20.593 0.344496 20.4427 0.371197 20.2864 0.430532C19.9497 0.608541 19.6099 0.771717 19.2672 0.920057C18.9245 1.0684 18.5727 1.1841 18.212 1.26718C17.7911 0.875555 17.3101 0.575907 16.7689 0.368231C16.2278 0.160553 15.6505 0.0389137 15.0372 0.00331306C14.3638 -0.020422 13.7295 0.083416 13.1342 0.314827C12.5389 0.54624 11.9948 0.887423 11.5017 1.33838C10.9847 1.81307 10.5938 2.37083 10.3293 3.01166C10.0647 3.65249 9.95046 4.31706 9.98654 5.00536C9.27703 4.91042 8.58557 4.75615 7.91214 4.54254C7.25074 4.31706 6.61038 4.03521 5.99107 3.69699C5.37175 3.35878 4.78551 2.96419 4.23234 2.51324C3.67917 2.06228 3.1741 1.56979 2.71713 1.03576C2.657 0.940826 2.57282 0.869621 2.46459 0.822153C2.35636 0.774683 2.24212 0.762815 2.12187 0.786551C2.02566 0.786551 1.92345 0.825119 1.81522 0.902258C1.70699 0.979395 1.62281 1.06543 1.56268 1.16037C1.14179 1.90801 0.92533 2.69421 0.913304 3.51899C0.901279 4.34376 1.07565 5.1181 1.43641 5.842C1.41236 5.842 1.37328 5.85387 1.31916 5.8776C1.26505 5.90134 1.22597 5.93101 1.20192 5.96661C1.08166 6.02594 0.99147 6.12088 0.931343 6.25142C0.871215 6.38196 0.841151 6.50657 0.841151 6.62524C0.841151 7.34914 0.985457 8.02854 1.27407 8.66344C1.56268 9.29834 1.96553 9.84126 2.48263 10.2922C2.38643 10.3872 2.3263 10.5029 2.30225 10.6393C2.2782 10.7758 2.29624 10.9034 2.35636 11.0221C2.57282 11.7104 2.92457 12.3067 3.4116 12.811C3.89863 13.3154 4.46082 13.7041 5.09817 13.977C4.46082 14.2737 3.78138 14.4814 3.05985 14.6C2.33832 14.7187 1.59876 14.7484 0.841151 14.689C0.648744 14.6653 0.483393 14.7039 0.3451 14.8047C0.206807 14.9056 0.107596 15.0273 0.047469 15.1697C-0.0126584 15.3239 -0.0156648 15.4812 0.0384499 15.6414C0.0925646 15.8016 0.191775 15.9292 0.336081 16.0241C0.841151 16.3445 1.37027 16.6293 1.92345 16.8785C2.46459 17.1278 3.02378 17.3354 3.601 17.5016C4.17822 17.6677 4.76747 17.7923 5.36875 17.8754C5.958 17.9585 6.55927 18 7.17257 18C8.3631 18 9.44539 17.8754 10.4195 17.6262C11.3935 17.377 12.2684 17.0536 13.044 16.656C13.8197 16.2585 14.5021 15.8164 15.0914 15.3299C15.6926 14.8552 16.2037 14.3805 16.6246 13.9058C17.1417 13.3243 17.6047 12.6953 18.0135 12.0189C18.4224 11.3543 18.7681 10.6631 19.0507 9.9451C19.3333 9.22713 19.5468 8.49433 19.6911 7.74669C19.8474 6.98719 19.9256 6.23362 19.9256 5.48598C19.9256 5.45038 19.9256 5.41775 19.9256 5.38808C19.9256 5.35841 19.9256 5.33171 19.9256 5.30797C20.3224 4.99943 20.6772 4.66714 20.9899 4.31112C21.3025 3.95511 21.5971 3.58129 21.8737 3.18967C21.9579 3.01166 22 2.83959 22 2.67344C22 2.5073 21.9339 2.35896 21.8016 2.22842ZM18.4645 5.48598C18.4405 7.2186 18.1037 8.76728 17.4544 10.132C16.793 11.4849 15.9361 12.636 14.8839 13.5854C13.8317 14.5348 12.6382 15.2587 11.3033 15.7571C9.9685 16.2555 8.61563 16.5047 7.24472 16.5047C6.63142 16.5047 6.03316 16.4573 5.44992 16.3623C4.86668 16.2674 4.28044 16.1309 3.69119 15.9529C4.36462 15.7986 5.02602 15.5761 5.6754 15.2854C6.32477 14.9946 6.92605 14.6356 7.47922 14.2084C7.59948 14.1253 7.68666 14.0126 7.74078 13.8702C7.79489 13.7278 7.79188 13.5794 7.73176 13.4252C7.6596 13.2709 7.56641 13.1522 7.45216 13.0692C7.33792 12.9861 7.20264 12.9446 7.0463 12.9446C6.50516 12.9446 5.99708 12.8199 5.52207 12.5707C5.04707 12.3215 4.64121 11.9833 4.30449 11.5561C4.46082 11.5561 4.61114 11.5412 4.75545 11.5116C4.89975 11.4819 5.03805 11.4374 5.17033 11.3781C5.31463 11.3543 5.4409 11.2742 5.54913 11.1378C5.65736 11.0013 5.71147 10.844 5.71147 10.666C5.71147 10.4762 5.65435 10.3249 5.54011 10.2121C5.42587 10.0994 5.27856 10.0252 5.09817 9.9896C4.48487 9.87093 3.94974 9.60392 3.49277 9.18857C3.0358 8.77321 2.69909 8.28072 2.48263 7.71109C2.66301 7.71109 2.83137 7.71999 2.9877 7.73779C3.14403 7.7556 3.30036 7.76449 3.4567 7.76449C3.61303 7.76449 3.75733 7.72296 3.88961 7.63989C4.02189 7.55682 4.1181 7.43815 4.17822 7.28387C4.25038 7.14146 4.25639 6.99016 4.19626 6.82995C4.13614 6.66974 4.03392 6.54217 3.88961 6.44723C3.27631 6.05561 2.84039 5.52752 2.58184 4.86295C2.32329 4.19839 2.26617 3.52195 2.41048 2.83365C2.96365 3.39141 3.55891 3.88984 4.19626 4.32893C4.84564 4.76801 5.52508 5.14777 6.23458 5.46818C6.94409 5.7886 7.68967 6.03781 8.47132 6.21582C9.24096 6.40569 10.0286 6.52437 10.8343 6.57184C10.9546 6.57184 11.0628 6.55404 11.159 6.51843C11.2552 6.48283 11.3514 6.41756 11.4476 6.32262C11.5078 6.23955 11.5498 6.14165 11.5739 6.02891C11.598 5.91617 11.598 5.81233 11.5739 5.71739C11.4176 5.12403 11.4326 4.53364 11.619 3.94621C11.8054 3.35878 12.115 2.86925 12.548 2.47763C12.8847 2.18095 13.2695 1.94954 13.7024 1.7834C14.1353 1.61726 14.5803 1.54605 15.0372 1.56979C15.4942 1.56979 15.9331 1.66769 16.354 1.8635C16.7749 2.05931 17.1477 2.32336 17.4724 2.65564L17.5446 2.70905C17.9654 2.62597 18.3863 2.4984 18.8072 2.32633C19.2281 2.15425 19.637 1.96141 20.0338 1.7478C19.8895 2.19875 19.6701 2.61707 19.3754 3.00276C19.0808 3.38845 18.7351 3.71183 18.3382 3.97291L18.3924 4.04411C18.7892 3.98477 19.174 3.90764 19.5468 3.8127C19.9196 3.71776 20.2864 3.59316 20.6471 3.43888C20.3705 3.77116 20.0368 4.12125 19.646 4.48913C19.2552 4.85702 18.8613 5.1893 18.4645 5.48598Z" fill="white"/>
</svg>
