<svg width="24" height="18" viewBox="0 0 24 18" fill="none" xmlns="http://www.w3.org/2000/svg">
<path d="M24 8.65622C24 7.79824 23.9385 6.93732 23.8154 6.07346C23.6923 5.2096 23.5145 4.34868 23.2821 3.4907C23.0769 2.86778 22.6256 2.2713 21.9282 1.70127C21.2308 1.13124 20.4991 0.775711 19.7333 0.634672C19.1043 0.528894 18.4684 0.440744 17.8256 0.370226C17.1829 0.287954 16.5402 0.220373 15.8974 0.167482C15.2547 0.114594 14.6188 0.0705204 13.9897 0.0352592C13.347 0.0117531 12.7043 0 12.0615 0H11.9385C11.3094 0 10.6735 0.0117531 10.0308 0.0352592C9.38803 0.0705204 8.7453 0.114594 8.10256 0.167482C7.45983 0.220373 6.81709 0.287954 6.17436 0.370226C5.53162 0.440744 4.89573 0.528894 4.26667 0.634672C3.52821 0.775711 2.80342 1.13124 2.09231 1.70127C1.3812 2.2713 0.929915 2.86778 0.738462 3.4907C0.533333 4.30167 0.365812 5.11851 0.235897 5.94123C0.105983 6.76396 0.0273504 7.59256 0 8.42703C0 8.62684 0 8.8237 0 9.01763C0 9.21156 0 9.39667 0 9.57297C0.0273504 10.4074 0.0991453 11.236 0.215385 12.0588C0.331624 12.8815 0.505983 13.6925 0.738462 14.4917C0.929915 15.1263 1.37436 15.7346 2.07179 16.3164C2.76923 16.8981 3.50085 17.2478 4.26667 17.3653C4.89573 17.4711 5.53162 17.5593 6.17436 17.6298C6.81709 17.712 7.46325 17.7796 8.11282 17.8325C8.76239 17.8854 9.40855 17.9236 10.0513 17.9471C10.7077 17.9824 11.3573 18 12 18C12.6291 18 13.265 17.9824 13.9077 17.9471C14.5504 17.9236 15.1966 17.8854 15.8462 17.8325C16.4957 17.7796 17.1419 17.712 17.7846 17.6298C18.441 17.5593 19.0906 17.4711 19.7333 17.3653C20.4718 17.2243 21.1966 16.8688 21.9077 16.2987C22.6188 15.7287 23.0769 15.1263 23.2821 14.4917C23.5145 13.669 23.6923 12.8315 23.8154 11.9794C23.9385 11.1273 24 10.284 24 9.44956C24 9.34378 24 9.22037 24 9.07933C24 8.9383 24 8.79726 24 8.65622ZM21.6821 14.2096C21.5727 14.5857 21.2752 14.9736 20.7897 15.3732C20.3043 15.7728 19.8427 16.0137 19.4051 16.096C18.7897 16.2018 18.1744 16.2958 17.559 16.3781C16.9436 16.4486 16.3248 16.5103 15.7026 16.5632C15.0803 16.6161 14.4615 16.6601 13.8462 16.6954C13.2308 16.7189 12.6154 16.7307 12 16.7307C11.3846 16.7307 10.7692 16.7189 10.1538 16.6954C9.53846 16.6601 8.92308 16.6161 8.30769 16.5632C7.69231 16.5103 7.07692 16.4486 6.46154 16.3781C5.83248 16.2958 5.21026 16.2018 4.59487 16.096C4.17094 16.0137 3.71282 15.7816 3.22051 15.3996C2.72821 15.0176 2.43419 14.6386 2.33846 14.2625C2.07863 13.3928 1.88718 12.5171 1.7641 11.6357C1.64103 10.7542 1.57949 9.87561 1.57949 9C1.57949 8.12439 1.64103 7.25171 1.7641 6.38198C1.88718 5.51224 2.07863 4.64838 2.33846 3.7904C2.43419 3.4143 2.72821 3.02645 3.22051 2.62684C3.71282 2.22723 4.17094 1.98041 4.59487 1.88639C5.21026 1.79236 5.83248 1.70421 6.46154 1.62194C7.07692 1.53967 7.69231 1.47209 8.30769 1.4192C8.92308 1.36631 9.53846 1.32811 10.1538 1.3046C10.7692 1.2811 11.3846 1.26934 12 1.26934C12.6154 1.26934 13.2308 1.2811 13.8462 1.3046C14.4615 1.32811 15.0803 1.36631 15.7026 1.4192C16.3248 1.47209 16.9436 1.53967 17.559 1.62194C18.1744 1.70421 18.7897 1.79236 19.4051 1.88639C19.8427 1.98041 20.3043 2.21841 20.7897 2.60039C21.2752 2.98237 21.5727 3.35553 21.6821 3.71988C21.9282 4.60137 22.1128 5.47698 22.2359 6.34672C22.359 7.22821 22.4205 8.1097 22.4205 8.99119C22.4205 9.87267 22.359 10.7483 22.2359 11.618C22.1128 12.4878 21.9282 13.3516 21.6821 14.2096ZM9.21026 6.08227C8.93675 6.22331 8.73504 6.40255 8.60513 6.61998C8.47521 6.83741 8.41026 7.07542 8.41026 7.33399V10.7189C8.41026 10.9775 8.48547 11.2155 8.6359 11.4329C8.78633 11.6503 8.97778 11.8296 9.21026 11.9706C9.33333 12.0646 9.47351 12.1263 9.63077 12.1557C9.78803 12.1851 9.93504 12.1998 10.0718 12.1998C10.2085 12.1998 10.3385 12.1881 10.4615 12.1645C10.5846 12.141 10.7009 12.0999 10.8103 12.0411L14.6667 10.3663C14.9675 10.2605 15.2 10.0872 15.3641 9.84623C15.5282 9.60529 15.6103 9.34378 15.6103 9.0617C15.6103 8.76787 15.5282 8.50931 15.3641 8.28599C15.2 8.06268 14.9675 7.88051 14.6667 7.73947L10.8103 6.08227C10.5368 5.92948 10.2598 5.85309 9.97949 5.85309C9.69915 5.85309 9.44274 5.92948 9.21026 6.08227Z" fill="white"/>
</svg>
